<svg width="29" height="19" viewBox="0 0 29 19" fill="none" xmlns="http://www.w3.org/2000/svg">
<path d="M28.4996 9.50001V17.5C28.4996 17.7652 28.3942 18.0196 28.2067 18.2071C28.0192 18.3947 27.7648 18.5 27.4996 18.5H19.4996C19.2344 18.5 18.98 18.3947 18.7925 18.2071C18.6049 18.0196 18.4996 17.7652 18.4996 17.5C18.4996 17.2348 18.6049 16.9804 18.7925 16.7929C18.98 16.6054 19.2344 16.5 19.4996 16.5H25.0858L15.4996 6.91376L11.2071 11.2075C11.1142 11.3005 11.0039 11.3742 10.8825 11.4246C10.7611 11.4749 10.631 11.5008 10.4996 11.5008C10.3682 11.5008 10.238 11.4749 10.1166 11.4246C9.99524 11.3742 9.88495 11.3005 9.79208 11.2075L0.79208 2.20751C0.604439 2.01987 0.499023 1.76537 0.499023 1.50001C0.499023 1.23464 0.604439 0.980147 0.79208 0.792506C0.97972 0.604866 1.23422 0.499451 1.49958 0.499451C1.76494 0.499451 2.01944 0.604866 2.20708 0.792506L10.4996 9.08626L14.7921 4.79251C14.885 4.69953 14.9952 4.62577 15.1166 4.57545C15.238 4.52512 15.3682 4.49922 15.4996 4.49922C15.631 4.49922 15.7611 4.52512 15.8825 4.57545C16.0039 4.62577 16.1142 4.69953 16.2071 4.79251L26.4996 15.0863V9.50001C26.4996 9.23479 26.6049 8.98044 26.7925 8.7929C26.98 8.60536 27.2344 8.50001 27.4996 8.50001C27.7648 8.50001 28.0192 8.60536 28.2067 8.7929C28.3942 8.98044 28.4996 9.23479 28.4996 9.50001Z" fill="white"/>
</svg>
