<svg width="25" height="27" viewBox="0 0 25 27" fill="none" xmlns="http://www.w3.org/2000/svg">
<path d="M7.39875 19.3C7.50385 19.379 7.62349 19.4365 7.75082 19.4692C7.87816 19.5019 8.0107 19.5091 8.14085 19.4906C8.271 19.472 8.39621 19.4279 8.50931 19.3609C8.62242 19.2939 8.7212 19.2052 8.8 19.1C9.40546 18.2927 10.1906 17.6375 11.0931 17.1862C11.9957 16.7349 12.9909 16.5 14 16.5C15.0091 16.5 16.0043 16.7349 16.9069 17.1862C17.8095 17.6375 18.5945 18.2927 19.2 19.1C19.2788 19.2051 19.3775 19.2936 19.4905 19.3605C19.6035 19.4274 19.7286 19.4714 19.8586 19.49C19.9886 19.5085 20.121 19.5013 20.2482 19.4687C20.3754 19.4361 20.4949 19.3788 20.6 19.3C20.7051 19.2212 20.7936 19.1225 20.8605 19.0095C20.9274 18.8965 20.9714 18.7714 20.99 18.6414C21.0085 18.5114 21.0013 18.379 20.9687 18.2518C20.9361 18.1246 20.8788 18.0051 20.8 17.9C19.9145 16.7128 18.7337 15.7781 17.375 15.1887C18.1196 14.5089 18.6413 13.6199 18.8716 12.6382C19.1019 11.6566 19.03 10.6283 18.6654 9.68828C18.3009 8.74823 17.6606 7.94037 16.8287 7.37072C15.9967 6.80106 15.012 6.49623 14.0037 6.49623C12.9955 6.49623 12.0108 6.80106 11.1788 7.37072C10.3469 7.94037 9.70665 8.74823 9.34207 9.68828C8.97749 10.6283 8.90563 11.6566 9.13592 12.6382C9.36621 13.6199 9.88789 14.5089 10.6325 15.1887C9.27105 15.777 8.08755 16.7118 7.2 17.9C7.04074 18.112 6.97221 18.3786 7.00948 18.6412C7.04675 18.9037 7.18677 19.1407 7.39875 19.3ZM11 11.5C11 10.9067 11.1759 10.3266 11.5056 9.83329C11.8352 9.33994 12.3038 8.95542 12.8519 8.72836C13.4001 8.5013 14.0033 8.44189 14.5853 8.55764C15.1672 8.6734 15.7018 8.95912 16.1213 9.37868C16.5409 9.79824 16.8266 10.3328 16.9424 10.9147C17.0581 11.4967 16.9987 12.0999 16.7716 12.6481C16.5446 13.1962 16.1601 13.6648 15.6667 13.9944C15.1734 14.3241 14.5933 14.5 14 14.5C13.2044 14.5 12.4413 14.1839 11.8787 13.6213C11.3161 13.0587 11 12.2956 11 11.5ZM23 0.5H5C4.46957 0.5 3.96086 0.710714 3.58579 1.08579C3.21071 1.46086 3 1.96957 3 2.5V5.5H1C0.734784 5.5 0.48043 5.60536 0.292893 5.79289C0.105357 5.98043 0 6.23478 0 6.5C0 6.76522 0.105357 7.01957 0.292893 7.20711C0.48043 7.39464 0.734784 7.5 1 7.5H3V12.5H1C0.734784 12.5 0.48043 12.6054 0.292893 12.7929C0.105357 12.9804 0 13.2348 0 13.5C0 13.7652 0.105357 14.0196 0.292893 14.2071C0.48043 14.3946 0.734784 14.5 1 14.5H3V19.5H1C0.734784 19.5 0.48043 19.6054 0.292893 19.7929C0.105357 19.9804 0 20.2348 0 20.5C0 20.7652 0.105357 21.0196 0.292893 21.2071C0.48043 21.3946 0.734784 21.5 1 21.5H3V24.5C3 25.0304 3.21071 25.5391 3.58579 25.9142C3.96086 26.2893 4.46957 26.5 5 26.5H23C23.5304 26.5 24.0391 26.2893 24.4142 25.9142C24.7893 25.5391 25 25.0304 25 24.5V2.5C25 1.96957 24.7893 1.46086 24.4142 1.08579C24.0391 0.710714 23.5304 0.5 23 0.5ZM23 24.5H5V2.5H23V24.5Z" fill="white"/>
</svg>
