<svg width="33" height="33" viewBox="0 0 33 33" fill="none" xmlns="http://www.w3.org/2000/svg">
<path d="M29.2913 18.1325C28.9191 17.8462 28.486 17.6496 28.0255 17.5578C27.5651 17.4661 27.0897 17.4819 26.6362 17.6038L21.4062 18.8063C21.5279 18.2922 21.5317 17.7574 21.4172 17.2417C21.3028 16.726 21.0731 16.2429 20.7454 15.8287C20.4177 15.4144 20.0005 15.0797 19.5251 14.8495C19.0496 14.6194 18.5282 14.4999 18 14.5H11.7425C11.217 14.4987 10.6964 14.6015 10.2109 14.8025C9.72539 15.0036 9.28451 15.2988 8.91375 15.6713L6.08625 18.5H2.5C1.96957 18.5 1.46086 18.7107 1.08579 19.0858C0.710714 19.4609 0.5 19.9696 0.5 20.5L0.5 25.5C0.5 26.0304 0.710714 26.5391 1.08579 26.9142C1.46086 27.2893 1.96957 27.5 2.5 27.5H15.5C15.5818 27.5 15.6632 27.49 15.7425 27.47L23.7425 25.47C23.7935 25.4579 23.8433 25.4411 23.8913 25.42L28.75 23.3525L28.805 23.3275C29.272 23.0942 29.6718 22.7458 29.9669 22.3152C30.2621 21.8846 30.4427 21.386 30.4918 20.8663C30.541 20.3466 30.457 19.8229 30.2478 19.3447C30.0387 18.8664 29.7112 18.4492 29.2962 18.1325H29.2913ZM2.5 20.5H5.5V25.5H2.5V20.5ZM27.9287 21.5263L23.1787 23.5488L15.375 25.5H7.5V19.9138L10.3287 17.0863C10.5138 16.8997 10.7341 16.7518 10.9768 16.6512C11.2195 16.5506 11.4798 16.4992 11.7425 16.5H18C18.3978 16.5 18.7794 16.658 19.0607 16.9393C19.342 17.2206 19.5 17.6022 19.5 18C19.5 18.3978 19.342 18.7794 19.0607 19.0607C18.7794 19.342 18.3978 19.5 18 19.5H14.5C14.2348 19.5 13.9804 19.6054 13.7929 19.7929C13.6054 19.9804 13.5 20.2348 13.5 20.5C13.5 20.7652 13.6054 21.0196 13.7929 21.2071C13.9804 21.3946 14.2348 21.5 14.5 21.5H18.5C18.5753 21.4998 18.6503 21.4914 18.7237 21.475L27.0987 19.5488L27.1375 19.5388C27.3932 19.4678 27.666 19.4939 27.9036 19.612C28.1412 19.7301 28.3267 19.9319 28.4245 20.1786C28.5222 20.4253 28.5253 20.6994 28.4331 20.9482C28.3409 21.197 28.1599 21.4029 27.925 21.5263H27.9287ZM21 12.5C21.2471 12.5003 21.4937 12.4802 21.7375 12.44C22.0117 13.2544 22.5133 13.9733 23.1832 14.5117C23.853 15.05 24.6629 15.3854 25.5173 15.478C26.3716 15.5706 27.2346 15.4167 28.0042 15.0344C28.7739 14.6521 29.4179 14.0574 29.8603 13.3206C30.3026 12.5839 30.5248 11.7359 30.5005 10.8769C30.4762 10.0179 30.2064 9.18379 29.7231 8.47325C29.2398 7.7627 28.5631 7.2054 27.7731 6.86724C26.9831 6.52909 26.1127 6.4242 25.265 6.565C25.001 5.78031 24.5256 5.08366 23.8912 4.55172C23.2568 4.01979 22.4879 3.67318 21.6692 3.55005C20.8505 3.42692 20.0137 3.53203 19.2509 3.85383C18.488 4.17563 17.8288 4.70163 17.3456 5.37396C16.8625 6.04628 16.5742 6.83886 16.5125 7.66447C16.4507 8.49008 16.618 9.31672 16.9958 10.0534C17.3735 10.7901 17.9472 11.4083 18.6537 11.84C19.3602 12.2716 20.1721 12.5 21 12.5ZM28.5 11C28.5 11.4945 28.3534 11.9778 28.0787 12.3889C27.804 12.8001 27.4135 13.1205 26.9567 13.3097C26.4999 13.4989 25.9972 13.5484 25.5123 13.452C25.0273 13.3555 24.5819 13.1174 24.2322 12.7678C23.8826 12.4181 23.6445 11.9727 23.548 11.4877C23.4516 11.0028 23.5011 10.5001 23.6903 10.0433C23.8795 9.58648 24.2 9.19603 24.6111 8.92133C25.0222 8.64662 25.5055 8.5 26 8.5C26.663 8.5 27.2989 8.76339 27.7678 9.23223C28.2366 9.70108 28.5 10.337 28.5 11ZM21 5.5C21.5454 5.50027 22.0757 5.67888 22.5101 6.0086C22.9446 6.33832 23.2593 6.80105 23.4062 7.32625C22.8941 7.68662 22.4628 8.14992 22.1399 8.68652C21.8171 9.22312 21.6097 9.8212 21.5312 10.4425C21.3567 10.4802 21.1786 10.4995 21 10.5C20.337 10.5 19.7011 10.2366 19.2322 9.76777C18.7634 9.29893 18.5 8.66304 18.5 8C18.5 7.33696 18.7634 6.70108 19.2322 6.23223C19.7011 5.76339 20.337 5.5 21 5.5Z" fill="white"/>
</svg>
