<svg width="26" height="23" viewBox="0 0 26 23" fill="none" xmlns="http://www.w3.org/2000/svg">
<path d="M23.5 4.5H3.5C3.23478 4.5 2.98043 4.39464 2.79289 4.20711C2.60536 4.01957 2.5 3.76522 2.5 3.5C2.5 3.23478 2.60536 2.98043 2.79289 2.79289C2.98043 2.60536 3.23478 2.5 3.5 2.5H20.5C20.7652 2.5 21.0196 2.39464 21.2071 2.20711C21.3946 2.01957 21.5 1.76522 21.5 1.5C21.5 1.23478 21.3946 0.98043 21.2071 0.792893C21.0196 0.605357 20.7652 0.5 20.5 0.5H3.5C2.70435 0.5 1.94129 0.816071 1.37868 1.37868C0.816071 1.94129 0.5 2.70435 0.5 3.5V19.5C0.5 20.2956 0.816071 21.0587 1.37868 21.6213C1.94129 22.1839 2.70435 22.5 3.5 22.5H23.5C24.0304 22.5 24.5391 22.2893 24.9142 21.9142C25.2893 21.5391 25.5 21.0304 25.5 20.5V6.5C25.5 5.96957 25.2893 5.46086 24.9142 5.08579C24.5391 4.71071 24.0304 4.5 23.5 4.5ZM23.5 20.5H3.5C3.23478 20.5 2.98043 20.3946 2.79289 20.2071C2.60536 20.0196 2.5 19.7652 2.5 19.5V6.32875C2.82109 6.44257 3.15933 6.5005 3.5 6.5H23.5V20.5ZM17.5 13C17.5 12.7033 17.588 12.4133 17.7528 12.1666C17.9176 11.92 18.1519 11.7277 18.426 11.6142C18.7001 11.5007 19.0017 11.4709 19.2926 11.5288C19.5836 11.5867 19.8509 11.7296 20.0607 11.9393C20.2704 12.1491 20.4133 12.4164 20.4712 12.7074C20.5291 12.9983 20.4993 13.2999 20.3858 13.574C20.2723 13.8481 20.08 14.0824 19.8334 14.2472C19.5867 14.412 19.2967 14.5 19 14.5C18.6022 14.5 18.2206 14.342 17.9393 14.0607C17.658 13.7794 17.5 13.3978 17.5 13Z" fill="white"/>
</svg>
